<svg xmlns="http://www.w3.org/2000/svg" width="460" height="460" viewBox="0 0 460 460" version="1.1"><path d="M 134.768 47.500 C 135.882 56.631, 135.484 81.745, 134.119 88.500 C 132.278 97.604, 131.462 136.982, 132.934 145.653 C 134.718 156.161, 138.570 163.469, 145.899 170.250 C 151.302 175.249, 154 177.030, 154 175.599 C 154 175.379, 152.879 172.791, 151.510 169.849 C 148.755 163.932, 148.273 157.159, 150.158 150.866 C 151.278 147.129, 153 145.598, 153 148.340 C 153 150.844, 158.928 161.556, 161.876 164.381 L 164.811 167.193 165.513 159.703 C 167.306 140.572, 163.087 109.612, 154.869 81.591 C 151.274 69.333, 142.485 50.953, 137.611 45.500 L 134.036 41.500 134.768 47.500 M 351.079 69.119 C 350.986 82.813, 352.719 93.772, 357.149 107.505 C 359.910 116.063, 360.383 119.010, 360.437 128 C 360.493 137.307, 360.175 139.309, 357.642 145.622 C 354.862 152.551, 354.830 152.838, 356.449 156.250 C 357.364 158.179, 359.204 160.783, 360.538 162.036 L 362.964 164.315 365.232 161.533 C 369.405 156.415, 375.026 146.618, 376.130 142.538 C 376.731 140.317, 377.013 135.534, 376.756 131.908 C 376.346 126.108, 375.255 123.224, 367.682 107.908 C 358.116 88.562, 355.638 81.716, 353.414 68.500 C 351.305 55.966, 351.168 56.002, 351.079 69.119 M 300.750 188.025 C 297.520 190.008, 299.180 197.138, 303.857 201.371 C 306.812 204.045, 310.767 202.822, 312.446 198.714 C 315.233 191.898, 315.244 191.206, 312.588 189.466 C 309.422 187.391, 303.047 186.615, 300.750 188.025 M 257.723 190.003 C 254.353 192.654, 254.323 194.169, 257.531 199.644 C 260.620 204.914, 262.962 206.345, 266.374 205.048 C 269.585 203.827, 271 201.127, 271 196.221 C 271 191.609, 269.035 189.454, 263.973 188.515 C 261.219 188.005, 259.849 188.331, 257.723 190.003 M 358.195 216.500 C 358.215 218.150, 358.439 218.704, 358.693 217.731 C 358.947 216.758, 358.930 215.408, 358.656 214.731 C 358.382 214.054, 358.175 214.850, 358.195 216.500 M 212.195 218.500 C 212.215 220.150, 212.439 220.704, 212.693 219.731 C 212.947 218.758, 212.930 217.408, 212.656 216.731 C 212.382 216.054, 212.175 216.850, 212.195 218.500 M 164.364 249.476 C 156.839 250.841, 144.800 256.473, 140.754 260.519 C 139.489 261.783, 137.151 265.546, 135.557 268.881 L 132.659 274.944 135.580 277.129 C 137.186 278.331, 141.303 282.222, 144.730 285.776 L 150.959 292.237 151.980 289.554 C 152.541 288.078, 153 286.517, 153 286.085 C 153 283.994, 159.229 276.412, 162.646 274.343 C 167.110 271.641, 176.679 271.234, 183.500 273.457 L 187.500 274.761 184.250 275.505 C 182.463 275.915, 181 276.434, 181 276.659 C 181 276.884, 183.886 279.769, 187.414 283.069 C 193.565 288.822, 201.409 299.412, 209.400 312.750 C 211.460 316.188, 213.450 318.990, 213.822 318.979 C 214.195 318.967, 215.824 317.088, 217.441 314.803 C 219.059 312.518, 220.555 311.164, 220.765 311.795 C 220.975 312.426, 220.214 317.518, 219.074 323.111 C 215.385 341.197, 216.231 344.822, 227.519 359.292 C 235.037 368.929, 241.291 372.509, 250.567 372.484 C 255.892 372.469, 257.935 371.813, 267.270 367.116 C 282.492 359.457, 293.129 352.178, 295.248 347.971 C 296.397 345.691, 296.983 342.270, 296.955 338 L 296.914 331.500 288.316 326.500 C 278.311 320.682, 267.778 310.823, 256.631 296.843 L 248.932 287.186 234.716 280.095 C 221.904 273.704, 199.789 266, 194.253 266 C 190.524 266, 194.554 264.585, 201.247 263.545 L 208.500 262.418 196.500 256.616 C 177.032 247.204, 176.964 247.189, 164.364 249.476 M 357.103 252.538 C 352.905 254.937, 345.307 261, 346.497 261 C 346.809 261, 348.694 260.319, 350.686 259.487 C 354.818 257.760, 355.588 258.033, 354.152 260.716 C 353.597 261.754, 351.961 266.802, 350.518 271.935 C 348.337 279.693, 348.055 282.016, 348.844 285.716 C 350.075 291.488, 348.976 295.310, 343.903 302.907 C 337.676 312.232, 326.312 322.104, 315.965 327.176 L 307.144 331.500 307.072 340.628 C 307.023 346.828, 307.401 350.061, 308.250 350.710 C 311.515 353.203, 333.953 361.908, 343.896 364.539 L 349.293 365.967 355.101 362.439 C 362.766 357.782, 368.232 351.402, 371.080 343.785 C 373.871 336.322, 373.856 336.026, 370.029 323.595 C 366.719 312.841, 366.129 303.679, 368.414 298.500 L 369.737 295.500 370.397 299.500 C 371.754 307.723, 373.075 313.540, 373.875 314.817 C 374.494 315.804, 376.243 315.959, 380.864 315.436 C 386.396 314.810, 387.103 314.470, 387.764 312.119 C 389.077 307.448, 388.604 278.912, 387.115 273 C 383.968 260.497, 382.406 257.695, 376.371 253.721 C 369.309 249.070, 363.765 248.729, 357.103 252.538 M 150.252 340.500 C 150.263 342.700, 150.468 343.482, 150.707 342.238 C 150.946 340.994, 150.937 339.194, 150.687 338.238 C 150.437 337.282, 150.241 338.300, 150.252 340.500 M 24.195 340.500 C 24.215 342.150, 24.439 342.704, 24.693 341.731 C 24.947 340.758, 24.930 339.408, 24.656 338.731 C 24.382 338.054, 24.175 338.850, 24.195 340.500 M 189.500 350.458 C 182.900 351.709, 174.913 353.050, 171.751 353.438 C 166.571 354.074, 165.944 354.409, 165.418 356.822 C 165.097 358.295, 164.457 360.702, 163.997 362.172 L 163.158 364.844 170.829 365.496 C 175.048 365.854, 184.022 367.014, 190.772 368.074 C 197.521 369.133, 203.243 370, 203.486 370 C 203.730 370, 203.034 367.911, 201.939 365.358 C 200.845 362.806, 200.129 360.538, 200.348 360.319 C 201.209 359.458, 215.692 375.126, 218.794 380.275 C 220.606 383.282, 223.672 390.188, 225.608 395.621 C 229.516 406.588, 232.456 410.431, 240.500 415.087 C 247.745 419.281, 254.304 419.115, 264.475 414.480 C 279.023 407.850, 308.415 398.972, 311.933 400.144 C 312.525 400.342, 310.998 402.077, 308.542 404.001 C 306.086 405.926, 304.059 407.784, 304.038 408.130 C 304.017 408.477, 309.204 409.577, 315.564 410.574 L 327.129 412.388 331.562 409.966 C 334.001 408.634, 340.384 404.375, 345.748 400.501 C 354.993 393.824, 355.517 393.251, 355.826 389.479 C 356.005 387.291, 355.872 383.634, 355.530 381.353 C 354.960 377.549, 354.611 377.150, 351.320 376.532 C 349.347 376.162, 339.819 373.615, 330.148 370.872 C 305.646 363.924, 303.856 363.595, 298.058 364.986 C 295.381 365.628, 287.051 369.505, 279.547 373.600 C 264.029 382.070, 253.340 386.035, 246.324 385.924 L 241.500 385.848 245 384.580 L 248.500 383.311 243.995 382.631 C 233.990 381.120, 227.105 375.095, 215.632 357.809 C 211.107 350.992, 210.049 349.998, 206.321 349.059 C 204.007 348.477, 201.976 348.041, 201.807 348.092 C 201.638 348.143, 196.100 349.208, 189.500 350.458 M 295.836 380.919 C 289.101 383.073, 284.560 385.752, 280.563 389.930 C 277.219 393.425, 277.554 393.647, 282.782 391.406 C 284.827 390.530, 288.300 389.179, 290.500 388.404 L 294.500 386.997 292 389.056 L 289.500 391.115 292.500 390.617 C 294.150 390.342, 299.414 389.828, 304.198 389.473 C 313.165 388.809, 315.801 387.529, 314.607 384.418 C 314.071 383.021, 314.678 382.895, 319.245 383.450 C 324.006 384.030, 324.325 383.950, 322.640 382.604 C 318.003 378.901, 304.752 378.068, 295.836 380.919 M 40 382.313 C 40 382.485, 41.462 383.948, 43.250 385.563 L 46.500 388.500 43.563 385.250 C 40.825 382.221, 40 381.540, 40 382.313 M 131.437 385.250 L 128.500 388.500 131.750 385.563 C 133.537 383.948, 135 382.485, 135 382.313 C 135 381.540, 134.175 382.221, 131.437 385.250 M 86.269 403.693 C 87.242 403.947, 88.592 403.930, 89.269 403.656 C 89.946 403.382, 89.150 403.175, 87.500 403.195 C 85.850 403.215, 85.296 403.439, 86.269 403.693" stroke="none" fill="#cc7929" fill-rule="evenodd"/><path d="M 204.476 212.349 C 203.132 223.103, 207.168 231.982, 215.308 236.181 C 218.766 237.964, 220.988 238.308, 228 238.143 C 234.008 238.001, 236.060 238.240, 235 238.956 C 233.767 239.789, 233.889 239.972, 235.691 239.985 C 239.188 240.009, 239.319 238.229, 235.876 237.473 C 233.579 236.968, 233.106 236.551, 234.117 235.920 C 234.952 235.398, 234.011 235.296, 231.741 235.661 C 226.734 236.465, 220.112 233.869, 216.198 229.567 C 214.512 227.715, 213.403 225.930, 213.733 225.600 C 214.063 225.270, 213.802 225, 213.153 225 C 212.069 225, 212.065 216.433, 213.147 212.083 C 213.371 211.185, 212.217 210.291, 210 209.644 C 208.075 209.082, 206.204 208.186, 205.842 207.651 C 205.480 207.117, 204.865 209.231, 204.476 212.349 M 331.872 217.750 C 330.658 219.298, 330.683 219.357, 332.092 218.259 C 332.968 217.576, 333.980 217.313, 334.342 217.675 C 334.704 218.037, 335 217.808, 335 217.167 C 335 215.455, 333.445 215.745, 331.872 217.750 M 347.924 225.750 L 345.500 228.500 348.250 226.076 C 349.762 224.742, 351 223.505, 351 223.326 C 351 222.541, 350.190 223.180, 347.924 225.750 M 325.490 226.655 C 320.513 234.252, 333.421 235.930, 349.774 229.812 C 357.600 226.884, 355.616 226.624, 347.445 229.507 C 336.997 233.194, 330 232.796, 330 228.515 C 330 227.267, 329.382 225.732, 328.626 225.105 C 327.547 224.209, 326.875 224.542, 325.490 226.655 M 337.269 229.693 C 338.242 229.947, 339.592 229.930, 340.269 229.656 C 340.946 229.382, 340.150 229.175, 338.500 229.195 C 336.850 229.215, 336.296 229.439, 337.269 229.693 M 167.745 289.984 C 159.777 299.294, 157.592 306.449, 161.519 310.377 C 162.353 311.210, 162.937 312.254, 162.816 312.696 C 162.418 314.147, 165.359 324, 166.189 324 C 167.365 324, 167.188 313.234, 166 312.500 C 165.450 312.160, 165 311.164, 165 310.286 C 165 308.858, 165.197 308.868, 166.868 310.381 C 168.644 311.988, 168.715 311.959, 168.306 309.786 C 167.842 307.317, 173.231 298.232, 175.729 297.274 C 178.431 296.237, 185.002 299.093, 191.668 304.202 L 198.361 309.332 194.023 303.148 C 187.032 293.182, 178.064 286, 172.610 286 C 171.810 286, 169.621 287.793, 167.745 289.984 M 168 316.313 C 168 316.485, 169.463 317.948, 171.250 319.563 L 174.500 322.500 171.563 319.250 C 168.825 316.221, 168 315.540, 168 316.313 M 198.500 326 C 201.209 328.750, 203.650 331, 203.925 331 C 204.200 331, 202.209 328.750, 199.500 326 C 196.791 323.250, 194.350 321, 194.075 321 C 193.800 321, 195.791 323.250, 198.500 326 M 169.768 344.725 C 171.565 344.947, 174.265 344.943, 175.768 344.715 C 177.271 344.486, 175.800 344.304, 172.500 344.310 C 169.200 344.315, 167.971 344.502, 169.768 344.725" stroke="none" fill="#e0dedf" fill-rule="evenodd"/><path d="M 348.178 14.504 C 344.747 17.391, 337.598 27.781, 333.733 35.500 C 329.280 44.391, 325.333 58.047, 321.064 79.334 C 316.293 103.127, 313.337 113.993, 308.989 123.717 L 305.938 130.540 275.219 130.520 C 248.424 130.503, 242.520 130.790, 229 132.771 C 220.475 134.020, 212.373 135.269, 210.996 135.547 C 208.789 135.991, 208 135.247, 204.347 129.275 C 200.264 122.599, 195.565 112.260, 186.655 90.351 C 176.456 65.271, 167.199 49.938, 155.049 38 C 143.532 26.685, 128.513 18.699, 118.500 18.566 C 113.709 18.503, 113.486 18.621, 113.169 21.397 C 112.988 22.990, 113.747 26.815, 114.857 29.897 C 119.626 43.142, 122.059 66.328, 120.092 79.784 C 119.439 84.248, 116.669 95.011, 113.937 103.701 C 108.517 120.937, 104 140.674, 104 147.122 C 104 157.066, 109.774 171.326, 122.944 193.907 C 134.005 212.872, 135.387 217.286, 135.293 233.334 L 135.218 246.167 131.417 253.334 C 129.327 257.275, 126.713 262.420, 125.609 264.767 C 124.505 267.114, 123.129 268.831, 122.551 268.583 C 121.973 268.335, 117.225 266.686, 112 264.919 C 94.305 258.932, 72.591 259.899, 55.555 267.433 C 37.031 275.625, 20.907 292.275, 13.330 311.035 C 7.643 325.114, 6.288 344.941, 10.010 359.590 C 13.453 373.138, 21.226 387.055, 30.955 397.094 C 35.137 401.408, 44.827 408.391, 50.812 411.403 C 62.550 417.311, 70.104 419.178, 84.543 419.739 C 100.614 420.365, 109.765 418.409, 124 411.305 C 132.031 407.297, 134.970 405.090, 143.010 397.032 C 148.758 391.270, 154.122 384.751, 156.572 380.549 L 160.623 373.598 166.035 373.885 C 172.976 374.253, 184.043 376.207, 197.740 379.482 L 208.600 382.079 215.316 395.289 C 219.011 402.555, 222.026 409.056, 222.017 409.735 C 222.007 410.414, 223.356 413.174, 225.014 415.868 C 227.310 419.600, 229.154 421.246, 232.764 422.784 C 239.713 425.745, 244.595 426.910, 253.026 427.618 C 260.233 428.223, 260.850 428.101, 267.526 424.741 C 276.048 420.452, 286.930 417, 291.929 417 C 293.974 417, 299.439 418.145, 304.074 419.545 C 308.708 420.945, 316.215 422.362, 320.756 422.694 C 328.769 423.280, 329.227 423.192, 336.256 419.716 C 343.567 416.101, 360.172 403.159, 365.250 397.118 C 368.891 392.787, 368.974 385.819, 365.500 376.189 C 364.125 372.377, 363 369.036, 363 368.764 C 363 368.492, 366.799 365.397, 371.442 361.885 C 378.505 356.543, 380.230 354.666, 381.999 350.397 L 384.113 345.294 413.807 344.574 C 442.127 343.888, 443.605 343.758, 445.761 341.743 C 447.005 340.581, 448.518 337.801, 449.123 335.565 C 450.611 330.065, 449.679 319.850, 447.318 315.796 C 443.943 310, 442.823 309.850, 418.987 312.001 C 407.223 313.063, 397.512 313.835, 397.405 313.716 C 397.299 313.597, 397.830 310.575, 398.585 307 C 402.167 290.046, 398.777 268.458, 390.289 254.159 C 388.219 250.672, 382.569 242.572, 377.733 236.159 C 370.168 226.126, 369.013 224.082, 369.454 221.500 C 372.459 203.894, 372.278 189.894, 368.945 182.219 L 367.085 177.939 373.510 168.133 C 387.559 146.691, 391.259 134.390, 387.554 121.448 C 386.618 118.177, 382.354 108.750, 378.078 100.500 C 373.803 92.250, 369.385 83.025, 368.261 80 C 364.983 71.182, 362.252 56.862, 359.963 36.490 C 358.789 26.045, 357.301 16.375, 356.655 15 C 355.047 11.574, 351.880 11.389, 348.178 14.504 M 128 36.215 C 128 36.372, 128.713 40.100, 129.584 44.500 C 133.013 61.817, 131.509 83.127, 125.036 108.934 C 118.732 134.068, 117.566 147.291, 120.541 159.912 C 123.903 174.176, 136.230 187.822, 153.201 196.067 L 157.856 198.329 164.309 194.124 C 167.859 191.812, 171.561 189.038, 172.536 187.960 C 173.512 186.882, 174.712 186, 175.204 186 C 175.695 186, 173.100 190.299, 169.436 195.554 C 165.773 200.809, 162.938 205.252, 163.138 205.427 C 163.337 205.602, 164.940 206.478, 166.700 207.373 C 171.312 209.718, 177.247 209.492, 179.595 206.884 C 185.982 199.788, 198.156 195.289, 207.733 196.486 C 219.834 197.998, 229.775 202.993, 240.140 212.771 C 244.916 217.276, 248.445 219.659, 252.398 221.049 C 255.452 222.122, 258.474 223, 259.115 223 C 260.955 223, 262.933 219.761, 262.968 216.691 C 263.012 212.825, 264.480 214.079, 265.934 219.224 C 268.599 228.654, 273.510 230.729, 282.266 226.123 L 287.889 223.165 286.238 226.833 C 285.331 228.850, 283.443 231.799, 282.044 233.387 L 279.500 236.273 283.440 235.669 L 287.380 235.064 285.159 237.282 C 283.199 239.239, 282.058 239.467, 275.457 239.221 C 271.343 239.068, 267.113 239.404, 266.058 239.969 C 262.505 241.870, 259.927 246.877, 258.466 254.712 C 257.667 258.995, 256.725 263.625, 256.373 265 C 255.760 267.390, 255.693 267.347, 254.835 264 C 252.806 256.084, 250.856 253.055, 247.101 251.989 C 233.398 248.096, 200 243.349, 200 245.294 C 200 245.617, 203.713 247.973, 208.250 250.529 C 212.787 253.085, 215.825 254.970, 215 254.718 C 194.825 248.567, 188.291 246.393, 182.271 243.828 L 175.041 240.748 179.520 235.767 C 185.918 228.651, 187.215 222.256, 182.747 219.865 C 181.646 219.275, 178.304 218.462, 175.321 218.057 L 169.897 217.321 165.462 222.254 C 159.866 228.477, 158.416 233.341, 160.234 239.785 L 161.564 244.500 168.831 245.228 C 178.074 246.154, 181.699 247.918, 174.500 247.987 C 166.360 248.065, 156.221 250.696, 149.134 254.571 C 140.373 259.360, 139.354 260.364, 135.509 267.985 L 132.237 274.470 141.150 282.985 C 146.052 287.668, 150.319 291.725, 150.632 292 C 150.945 292.275, 152.022 290.337, 153.025 287.692 C 158.073 274.396, 167.488 269.657, 181.500 273.360 L 186.500 274.681 183.250 275.420 C 181.463 275.826, 180 276.512, 180 276.943 C 180 277.375, 181.881 279.027, 184.179 280.614 C 189.708 284.432, 198.241 295.293, 206.559 309.097 L 213.319 320.317 217.037 315.957 L 220.754 311.597 218.310 324.049 C 214.792 341.971, 215.532 344.730, 228.102 360.548 C 239.314 374.657, 249.263 376.496, 267.275 367.788 C 277.596 362.798, 290.059 354.785, 293.834 350.711 C 296.486 347.849, 297.941 342.631, 297.976 335.855 C 298 331.256, 297.947 331.182, 292.750 328.487 C 278.208 320.947, 268.689 311.819, 249.594 287.106 C 248.971 286.300, 250.396 286.672, 252.975 287.987 C 257.226 290.156, 257.480 290.177, 258.466 288.445 C 262.866 280.715, 267.969 279.633, 300.500 279.534 C 320.568 279.473, 327.127 279.139, 329.250 278.067 C 333.750 275.796, 332.721 271.076, 325.530 261 C 320.319 253.699, 320.329 253.281, 325.607 257.685 C 333.572 264.331, 344.380 276.174, 346.444 280.516 C 347.485 282.707, 348.515 286.525, 348.733 289 C 349.070 292.824, 348.556 294.457, 345.315 299.866 C 338.020 312.040, 324.505 323.698, 311.378 329.139 L 305.796 331.453 306.489 340.976 C 306.871 346.214, 307.479 350.774, 307.841 351.108 C 310.633 353.687, 344.126 366, 348.349 366 C 351.334 366, 362.313 358.657, 365.981 354.206 C 367.641 352.193, 370.192 347.423, 371.651 343.606 L 374.302 336.666 372 329.083 C 367.273 313.520, 366.540 308.620, 367.990 302.275 L 369.310 296.500 370.619 304.091 C 372.815 316.824, 372.679 316.656, 380.326 316.015 C 383.924 315.713, 387.097 315.236, 387.378 314.955 C 388.638 313.695, 390.042 295.846, 389.454 288.558 C 388.655 278.645, 386.463 267.352, 384.362 262.325 C 382.774 258.523, 366.669 234.532, 365.023 233.514 C 364.536 233.213, 359.304 234.325, 353.396 235.984 C 341.735 239.258, 331.080 239.891, 319.436 238.001 C 314.947 237.272, 312.074 237.353, 308.367 238.315 C 304.628 239.285, 303.093 239.325, 302.298 238.474 C 301.535 237.657, 301.734 237.022, 303.003 236.230 C 304.801 235.107, 306.141 229.187, 307.527 216.252 L 308.196 210.003 311.002 212.002 C 316.321 215.789, 320.183 214.802, 332.642 206.470 C 345.652 197.768, 349.416 196, 354.923 196 C 358.687 196, 358.946 195.805, 359.566 192.500 C 360.828 185.774, 359.302 182.107, 352.105 174.560 C 348.402 170.677, 341.238 162.699, 336.185 156.830 C 326.228 145.265, 325.490 144.819, 311 141.606 C 299.306 139.014, 292.934 138.812, 276.490 140.516 C 267.695 141.426, 260.387 142.284, 260.248 142.421 C 260.109 142.558, 263.148 144.844, 267 147.500 C 270.852 150.156, 273.829 152.505, 273.614 152.719 C 273.400 152.933, 267.212 151.305, 259.862 149.101 C 238.036 142.555, 229.055 141.784, 213 145.078 C 207.981 146.107, 207.194 146.653, 204 151.313 C 200.463 156.474, 193.853 161.334, 188.682 162.575 L 185.864 163.251 188.891 158.331 C 192.684 152.167, 195.253 142.698, 194.454 137.830 C 194.123 135.812, 191.864 130.862, 189.435 126.830 C 187.006 122.799, 182.022 111.850, 178.360 102.500 C 174.698 93.150, 169.552 81.225, 166.926 76 C 162.189 66.578, 154.214 53.659, 155.505 57.500 C 160.272 71.689, 162.158 78.189, 163.536 85.184 C 165.536 95.338, 166.723 120.435, 165.247 121.347 C 164.634 121.726, 163.951 120.080, 163.544 117.240 C 162.319 108.711, 157.022 86.701, 153.860 77 C 148.310 59.979, 136.719 40.596, 129.912 36.953 C 128.860 36.390, 128 36.058, 128 36.215 M 342.174 43.660 C 338.462 50.936, 335.908 60.536, 331.961 82.048 C 327.193 108.033, 324.788 117.534, 320.926 125.643 C 317.555 132.721, 317.499 133, 319.462 133 C 322.383 133, 331.934 137.158, 337.960 141.052 C 341.352 143.245, 344.519 144.797, 344.997 144.502 C 345.474 144.207, 346.409 141.385, 347.074 138.233 C 348.445 131.730, 347.709 122.822, 343.501 95 C 340.512 75.240, 340.334 61.884, 342.894 49.500 C 343.917 44.550, 344.616 40.344, 344.447 40.153 C 344.278 39.962, 343.255 41.540, 342.174 43.660 M 350.722 63.489 C 350.115 71.520, 351.215 86.498, 353.006 94.584 C 353.605 97.288, 355.527 104, 357.278 109.500 C 361.547 122.909, 361.675 134.116, 357.678 144.369 C 356.205 148.147, 355 152.245, 355 153.475 C 355 154.706, 356.656 157.881, 358.680 160.532 L 362.361 165.353 366.166 160.934 C 371.201 155.089, 376.870 143.656, 377.641 137.794 C 378.557 130.829, 376.763 125.319, 367.449 106.500 C 358.698 88.818, 354.904 77.735, 353.057 64.456 C 352.459 60.155, 351.817 56.484, 351.631 56.297 C 351.444 56.111, 351.036 59.347, 350.722 63.489 M 128.689 111.332 C 119.075 152.151, 126.214 174.749, 152.647 187.171 C 164.239 192.619, 164.413 192.567, 163.560 183.911 L 162.861 176.821 165.181 177.584 C 169.851 179.119, 171.413 178.650, 172.104 175.500 C 173.890 167.372, 172.229 153.342, 168.265 143.073 L 166.500 138.500 166 152.169 C 165.725 159.688, 165.161 166.177, 164.746 166.590 C 163.362 167.969, 158.922 162.622, 155.202 155.095 L 151.522 147.649 150.338 151.574 C 148.472 157.759, 148.842 161.971, 151.914 169.500 C 153.485 173.350, 154.629 176.656, 154.455 176.846 C 153.826 177.539, 145.230 171.026, 142.161 167.531 C 138.071 162.872, 135.369 157.488, 133.236 149.749 C 131.820 144.608, 131.547 139.644, 131.694 121.750 C 131.793 109.787, 131.758 100, 131.616 100 C 131.474 100, 130.157 105.099, 128.689 111.332 M 298.389 186.980 C 294.815 188.424, 294.701 190.951, 297.914 197.478 C 301.309 204.374, 305.174 208.531, 307.397 207.678 C 308.221 207.362, 309.620 205.703, 310.505 203.991 L 312.114 200.879 309.624 202.511 C 306.338 204.664, 303.872 203.343, 300.531 197.644 C 297.339 192.196, 297.355 190.652, 300.635 188.073 C 303.313 185.966, 302.218 185.433, 298.389 186.980 M 254.750 189.162 C 250.845 190.589, 251.108 194.770, 255.566 202.109 C 261.282 211.518, 264.423 212.582, 268.429 206.467 C 270.098 203.921, 270.090 203.881, 268.137 204.927 C 263.454 207.433, 259.779 205.288, 255.913 197.790 C 253.513 193.135, 253.488 193.379, 256.646 190.452 C 259.478 187.828, 259.102 187.573, 254.750 189.162 M 349 205.886 C 349 206.373, 349.672 208.060, 350.494 209.636 C 353.944 216.252, 351.118 224.175, 344.220 227.227 C 338.877 229.590, 334.365 229.019, 330.112 225.440 L 327.164 222.960 325.082 225.885 C 322.451 229.579, 322.471 230.516, 325.223 232.443 C 328.378 234.654, 337.442 234.413, 345.645 231.900 C 356.246 228.652, 359.540 224.523, 358.786 215.429 C 358.216 208.561, 355.891 205, 351.977 205 C 350.340 205, 349 205.399, 349 205.886 M 204.512 208.527 C 204.230 209.887, 203.754 212.176, 203.453 213.613 C 202.577 217.793, 204.869 226.520, 207.966 230.794 C 213.269 238.115, 225.492 241.918, 237.534 239.995 C 243.055 239.113, 248.991 237.076, 250.871 235.419 C 251.074 235.239, 249.791 233.261, 248.018 231.023 L 244.795 226.953 240.957 230.420 C 236.776 234.198, 231.958 235.579, 226.218 234.648 C 216.380 233.051, 210.013 220.677, 214.532 211.938 C 215.997 209.105, 215.964 208.938, 213.782 208.136 C 212.527 207.675, 210.043 207.018, 208.262 206.676 C 205.398 206.126, 204.965 206.340, 204.512 208.527 M 341.571 208.571 C 340.707 209.436, 340 210.754, 340 211.500 C 340 213.282, 342.761 216, 344.571 216 C 346.547 216, 346.359 217.273, 343.927 220.365 C 341.554 223.383, 336.082 224.008, 334 221.500 C 333.140 220.464, 333.102 220, 333.878 220 C 334.495 220, 335 218.875, 335 217.500 C 335 214.309, 333.680 214.313, 331.585 217.510 C 328.798 221.765, 332.497 226, 339 226 C 343.422 226, 345.949 224.367, 347.585 220.452 C 349.314 216.312, 349.428 209.828, 347.800 208.200 C 346.139 206.539, 343.443 206.700, 341.571 208.571 M 217.527 210.957 C 217.202 211.483, 217.248 214.966, 217.630 218.696 C 218.195 224.204, 218.834 225.988, 221.035 228.188 C 226.128 233.282, 234.016 233.146, 238.440 227.889 C 239.848 226.216, 241 224.515, 241 224.110 C 241 223.705, 239.663 222.094, 238.030 220.528 C 235.470 218.076, 234.971 217.913, 234.420 219.349 C 234.068 220.266, 234.462 222.056, 235.295 223.327 C 236.680 225.441, 236.647 225.739, 234.918 226.819 C 231.287 229.087, 226.405 228.270, 223.589 224.923 C 220.694 221.482, 220.237 219, 222.500 219 C 224.127 219, 228 215.555, 228 214.109 C 228 213.248, 220.916 210, 219.039 210 C 218.532 210, 217.852 210.431, 217.527 210.957 M 197.764 232.794 C 197.156 235.120, 197.678 236, 199.667 236 C 201.363 236, 201.360 234.874, 199.655 232.543 C 198.366 230.780, 198.288 230.790, 197.764 232.794 M 262.100 249.463 C 259.338 256.845, 258.017 265.652, 258.008 276.743 L 258 285.987 262.630 282.452 C 268.043 278.321, 272.117 276.495, 280.787 274.318 L 287.096 272.733 281.343 270.395 C 273.396 267.165, 269.445 262.912, 267.540 255.540 C 266.693 252.262, 266 248.324, 266 246.790 C 266 242.374, 264.321 243.525, 262.100 249.463 M 74 278.555 C 70.425 279.323, 63.792 281.782, 59.260 284.019 C 27.965 299.469, 15.206 337.365, 30.694 368.865 C 35.960 379.574, 48.528 392.188, 59 397.276 C 78.480 406.739, 100.114 406.175, 119 395.711 C 126.916 391.325, 139.766 377.975, 143.750 370 C 156.467 344.536, 151.951 315.945, 132.044 295.906 C 116.694 280.453, 95.149 274.013, 74 278.555 M 167.302 289.394 C 165.175 291.811, 162.195 296.237, 160.682 299.229 L 157.929 304.669 159.953 309.390 C 161.066 311.986, 162.704 316.615, 163.594 319.676 L 165.212 325.243 169.746 324.621 C 172.239 324.280, 174.960 324, 175.792 324 C 176.676 324, 174.957 321.539, 171.652 318.074 C 168.543 314.815, 166 311.879, 166 311.549 C 166 311.219, 167.308 311.625, 168.907 312.452 C 170.506 313.279, 175.343 314.918, 179.657 316.095 C 189.876 318.883, 191.199 319.643, 199.500 327.485 C 206.175 333.792, 206.349 334.070, 203.250 333.470 C 200.315 332.902, 200 333.073, 200 335.229 C 200 336.543, 199.339 338.491, 198.532 339.559 C 196.228 342.605, 196.672 342.999, 201.750 342.416 C 211.548 341.291, 211.040 341.744, 210.372 334.735 C 209.891 329.691, 208.756 326.669, 204.428 318.920 C 197.564 306.626, 192.783 299.582, 187.626 294.166 C 183.600 289.936, 175.517 285, 172.618 285 C 171.822 285, 169.429 286.977, 167.302 289.394 M 166.500 345 C 167.223 346.169, 174.570 346.195, 181 345.051 C 184.778 344.379, 183.926 344.230, 175.691 344.125 C 169.376 344.045, 166.102 344.356, 166.500 345 M 183 350.990 C 174.475 352.560, 167.015 353.879, 166.422 353.922 C 165.510 353.988, 163 362.169, 163 365.076 C 163 365.584, 165.363 366.002, 168.250 366.005 C 173.337 366.009, 196.607 369.109, 202.316 370.543 L 205.131 371.250 203.475 367.375 C 202.564 365.244, 201.570 362.825, 201.267 362 C 200.181 359.046, 212.192 371.629, 216.538 378 C 218.977 381.575, 222.746 389.217, 224.913 394.982 C 227.934 403.019, 229.832 406.469, 233.046 409.773 C 238.335 415.208, 243.837 418.032, 250.378 418.671 C 254.764 419.099, 256.605 418.655, 263.195 415.580 C 277.304 408.998, 293.509 403.713, 307.726 401.057 L 312.193 400.222 307.355 404.479 L 302.518 408.735 305.509 409.358 C 307.154 409.701, 312.687 410.688, 317.805 411.553 L 327.110 413.125 331.805 410.423 C 334.387 408.936, 340.887 404.590, 346.250 400.765 C 356.727 393.293, 356.687 393.360, 356.164 384 C 355.773 376.997, 355.333 376.319, 350.766 375.674 C 348.420 375.343, 337.725 372.548, 327 369.462 C 299.729 361.617, 301.703 361.323, 270 377.956 C 264.775 380.698, 257.486 383.629, 253.803 384.470 C 245.124 386.453, 242.506 386.384, 247 384.293 L 250.500 382.664 244.827 381.972 C 234.414 380.702, 228.099 375.507, 217.117 359.174 C 213.779 354.209, 210.575 349.856, 209.998 349.499 C 207.258 347.805, 197.311 348.354, 183 350.990 M 293.852 381.911 C 288.963 383.823, 280 389.785, 280 391.125 C 280 391.557, 282.935 390.806, 286.523 389.455 C 293.813 386.711, 296.444 386.348, 293.638 388.474 C 292.007 389.709, 292.940 389.815, 301.138 389.326 C 311.398 388.713, 316.029 386.944, 313.944 384.433 C 312.941 383.224, 313.515 382.988, 317.628 382.924 L 322.500 382.848 319 381.500 C 313.746 379.477, 299.481 379.710, 293.852 381.911" stroke="none" fill="#040404" fill-rule="evenodd"/><path d="M 128 36.215 C 128 36.372, 128.713 40.100, 129.584 44.500 C 133.013 61.817, 131.509 83.127, 125.036 108.934 C 118.732 134.068, 117.566 147.291, 120.541 159.912 C 123.903 174.176, 136.230 187.822, 153.201 196.067 L 157.856 198.329 164.309 194.124 C 167.859 191.812, 171.561 189.038, 172.536 187.960 C 173.512 186.882, 174.712 186, 175.204 186 C 175.695 186, 173.100 190.299, 169.436 195.554 C 165.773 200.809, 162.938 205.252, 163.138 205.427 C 163.337 205.602, 164.940 206.478, 166.700 207.373 C 171.312 209.718, 177.247 209.492, 179.595 206.884 C 185.982 199.788, 198.156 195.289, 207.733 196.486 C 219.834 197.998, 229.775 202.993, 240.140 212.771 C 244.916 217.276, 248.445 219.659, 252.398 221.049 C 255.452 222.122, 258.474 223, 259.115 223 C 260.955 223, 262.933 219.761, 262.968 216.691 C 263.012 212.825, 264.480 214.079, 265.934 219.224 C 268.599 228.654, 273.510 230.729, 282.266 226.123 L 287.889 223.165 286.238 226.833 C 285.331 228.850, 283.443 231.799, 282.044 233.387 L 279.500 236.273 283.440 235.669 L 287.380 235.064 285.159 237.282 C 283.199 239.239, 282.058 239.467, 275.457 239.221 C 271.343 239.068, 267.113 239.404, 266.058 239.969 C 262.505 241.870, 259.927 246.877, 258.466 254.712 C 257.667 258.995, 256.725 263.625, 256.373 265 C 255.760 267.390, 255.693 267.347, 254.835 264 C 252.806 256.084, 250.856 253.055, 247.101 251.989 C 233.398 248.096, 200 243.349, 200 245.294 C 200 245.617, 203.713 247.973, 208.250 250.529 C 212.787 253.085, 215.825 254.970, 215 254.718 C 194.825 248.567, 188.291 246.393, 182.271 243.828 L 175.041 240.748 179.520 235.767 C 185.918 228.651, 187.215 222.256, 182.747 219.865 C 181.646 219.275, 178.304 218.462, 175.321 218.057 L 169.897 217.321 165.462 222.254 C 159.867 228.477, 158.416 233.341, 160.234 239.785 L 161.563 244.500 168.213 245.161 C 175.976 245.932, 179.231 246.818, 178.521 247.965 C 178.242 248.417, 179.038 249.044, 180.289 249.358 C 181.540 249.672, 188.399 252.741, 195.532 256.179 L 208.500 262.430 201.247 263.551 C 197.258 264.168, 193.768 264.899, 193.491 265.176 C 193.214 265.453, 195.578 266.253, 198.744 266.954 C 210.371 269.529, 225.715 275.208, 236.850 281.057 C 243.134 284.357, 248.494 286.839, 248.762 286.572 C 249.029 286.304, 251.089 287.025, 253.340 288.174 C 257.261 290.174, 257.476 290.185, 258.466 288.445 C 262.866 280.715, 267.969 279.633, 300.500 279.534 C 320.568 279.473, 327.127 279.139, 329.250 278.067 C 333.750 275.796, 332.721 271.076, 325.530 261 C 320.319 253.699, 320.329 253.281, 325.607 257.685 C 332.948 263.811, 344.275 276.008, 346.071 279.722 L 347.629 282.944 349.459 275.722 C 350.466 271.750, 352.114 266.277, 353.121 263.560 C 354.128 260.842, 354.807 258.474, 354.630 258.296 C 354.452 258.119, 352.677 258.655, 350.686 259.487 C 345.414 261.690, 345.330 261.402, 350.086 257.428 C 360.229 248.954, 367.559 247.819, 375.900 253.432 C 378.705 255.320, 381 256.650, 381 256.388 C 381 255.614, 365.961 234.094, 365.009 233.506 C 364.530 233.209, 359.304 234.325, 353.396 235.984 C 341.735 239.258, 331.080 239.891, 319.436 238.001 C 314.947 237.272, 312.074 237.353, 308.367 238.315 C 304.628 239.285, 303.093 239.325, 302.298 238.474 C 301.535 237.657, 301.734 237.022, 303.003 236.230 C 304.801 235.107, 306.141 229.187, 307.527 216.252 L 308.196 210.003 311.002 212.002 C 316.321 215.789, 320.183 214.802, 332.642 206.470 C 345.652 197.768, 349.416 196, 354.923 196 C 358.687 196, 358.946 195.805, 359.566 192.500 C 360.828 185.774, 359.302 182.107, 352.105 174.560 C 348.402 170.677, 341.238 162.699, 336.185 156.830 C 326.228 145.265, 325.490 144.819, 311 141.606 C 299.306 139.014, 292.934 138.812, 276.490 140.516 C 267.695 141.426, 260.387 142.284, 260.248 142.421 C 260.109 142.558, 263.148 144.844, 267 147.500 C 270.852 150.156, 273.829 152.505, 273.614 152.719 C 273.400 152.933, 267.212 151.305, 259.862 149.101 C 238.036 142.555, 229.055 141.784, 213 145.078 C 207.981 146.107, 207.194 146.653, 204 151.313 C 200.463 156.474, 193.853 161.334, 188.682 162.575 L 185.864 163.251 188.891 158.331 C 192.684 152.167, 195.253 142.698, 194.454 137.830 C 194.123 135.812, 191.864 130.862, 189.435 126.830 C 187.006 122.799, 182.022 111.850, 178.360 102.500 C 174.698 93.150, 169.552 81.225, 166.926 76 C 162.189 66.578, 154.214 53.659, 155.505 57.500 C 160.275 71.698, 162.157 78.189, 163.531 85.184 C 165.532 95.373, 166.700 119.425, 165.281 121.228 C 164.663 122.013, 164.563 125.122, 165.021 129.347 C 165.428 133.113, 165.520 137.121, 165.223 138.254 C 164.892 139.521, 165.081 140.068, 165.714 139.677 C 168.017 138.254, 173.040 157.449, 172.864 167 C 172.659 178.168, 171.561 179.681, 165.181 177.584 L 162.861 176.821 163.560 183.911 C 164.413 192.567, 164.239 192.619, 152.647 187.171 C 131.141 177.064, 122.253 159.505, 124.996 132.540 C 126.246 120.246, 131.647 97.624, 132.048 103 C 132.192 104.925, 132.627 102.900, 133.015 98.500 C 133.403 94.100, 134.289 86.225, 134.983 81 C 136.192 71.904, 135.831 51.804, 134.327 44.500 L 133.709 41.500 136.105 43.479 C 137.422 44.567, 136.925 43.743, 135 41.647 C 132.013 38.395, 128 35.280, 128 36.215 M 342.174 43.660 C 338.462 50.936, 335.908 60.536, 331.961 82.048 C 327.193 108.033, 324.788 117.534, 320.926 125.643 C 317.555 132.721, 317.499 133, 319.462 133 C 322.383 133, 331.934 137.158, 337.960 141.052 C 341.352 143.245, 344.519 144.797, 344.997 144.502 C 345.474 144.207, 346.409 141.385, 347.074 138.233 C 348.445 131.730, 347.709 122.822, 343.501 95 C 340.512 75.240, 340.334 61.884, 342.894 49.500 C 343.917 44.550, 344.616 40.344, 344.447 40.153 C 344.278 39.962, 343.255 41.540, 342.174 43.660 M 350.252 70.500 C 350.263 72.700, 350.468 73.482, 350.707 72.238 C 350.946 70.994, 350.937 69.194, 350.687 68.238 C 350.437 67.282, 350.241 68.300, 350.252 70.500 M 131.365 127.500 C 131.368 133, 131.536 135.122, 131.738 132.216 C 131.941 129.311, 131.939 124.811, 131.734 122.216 C 131.528 119.622, 131.363 122, 131.365 127.500 M 377.286 134.500 C 377.294 137.250, 377.488 138.256, 377.718 136.736 C 377.947 135.216, 377.941 132.966, 377.704 131.736 C 377.467 130.506, 377.279 131.750, 377.286 134.500 M 161 164.500 C 162.292 165.875, 163.574 167, 163.849 167 C 164.124 167, 163.292 165.875, 162 164.500 C 160.708 163.125, 159.426 162, 159.151 162 C 158.876 162, 159.708 163.125, 161 164.500 M 143.500 169 C 145.648 171.200, 147.631 173, 147.906 173 C 148.181 173, 146.648 171.200, 144.500 169 C 142.352 166.800, 140.369 165, 140.094 165 C 139.819 165, 141.352 166.800, 143.500 169 M 298.389 186.982 C 294.815 188.422, 294.701 190.951, 297.914 197.478 C 301.699 205.165, 305.394 208.866, 307.795 207.373 C 309.601 206.250, 313.830 196.713, 314.250 192.815 C 314.442 191.036, 313.690 190.119, 311 188.853 C 306.454 186.713, 301.046 185.911, 298.389 186.982 M 254.750 189.182 C 250.843 190.581, 251.107 194.769, 255.566 202.109 C 261.297 211.542, 264.420 212.586, 268.462 206.417 C 269.442 204.923, 269.647 204.100, 268.931 204.543 C 268.211 204.988, 268.384 204.290, 269.327 202.943 C 271.643 199.637, 271.519 192.780, 269.105 190.595 C 266.867 188.569, 258.703 187.766, 254.750 189.182 M 348 213.833 C 348 214.475, 346.762 215.052, 345.250 215.116 C 343.558 215.187, 343.173 215.408, 344.250 215.689 C 346.516 216.281, 346.456 217.151, 343.927 220.365 C 341.647 223.264, 337.378 223.878, 334.032 221.788 C 331.120 219.969, 330.145 221.884, 332.861 224.086 C 336.289 226.866, 342.457 226.634, 345.479 223.612 C 347.806 221.285, 349.862 214.528, 348.620 213.287 C 348.279 212.946, 348 213.192, 348 213.833 M 203.195 216.500 C 203.215 218.150, 203.439 218.704, 203.693 217.731 C 203.947 216.758, 203.930 215.408, 203.656 214.731 C 203.382 214.054, 203.175 214.850, 203.195 216.500 M 217.714 219.554 C 218.336 225.567, 220.018 228.441, 224.172 230.589 C 228.239 232.692, 234.390 231.922, 237.598 228.908 C 240.611 226.078, 240.591 225.782, 237.292 224.249 C 235.422 223.381, 234.955 223.355, 235.765 224.165 C 237.492 225.892, 234.318 227.929, 229.839 227.968 C 226.957 227.993, 225.627 227.345, 223.589 224.923 C 220.569 221.334, 220.299 219.330, 222.750 218.689 C 223.847 218.403, 223.493 218.189, 221.800 218.116 C 220.315 218.052, 218.672 217.237, 218.150 216.304 C 217.495 215.133, 217.360 216.139, 217.714 219.554 M 234.345 219.543 C 234.019 220.392, 234.034 221.367, 234.376 221.710 C 234.719 222.053, 235 221.557, 235 220.608 C 235 219.558, 235.452 219.161, 236.155 219.595 C 236.870 220.038, 237.038 219.870, 236.595 219.155 C 235.635 217.600, 235.052 217.701, 234.345 219.543 M 197.764 232.794 C 197.156 235.120, 197.678 236, 199.667 236 C 201.363 236, 201.360 234.874, 199.655 232.543 C 198.366 230.780, 198.288 230.790, 197.764 232.794 M 228.269 235.693 C 229.242 235.947, 230.592 235.930, 231.269 235.656 C 231.946 235.382, 231.150 235.175, 229.500 235.195 C 227.850 235.215, 227.296 235.439, 228.269 235.693 M 229.250 240.689 C 230.213 240.941, 231.787 240.941, 232.750 240.689 C 233.713 240.438, 232.925 240.232, 231 240.232 C 229.075 240.232, 228.287 240.438, 229.250 240.689 M 262.100 249.463 C 259.338 256.845, 258.017 265.652, 258.008 276.743 L 258 285.987 262.630 282.452 C 268.043 278.321, 272.117 276.495, 280.787 274.318 L 287.096 272.733 281.343 270.395 C 273.396 267.165, 269.445 262.912, 267.540 255.540 C 266.693 252.262, 266 248.324, 266 246.790 C 266 242.374, 264.321 243.525, 262.100 249.463 M 83.776 277.733 C 86.128 277.945, 89.728 277.942, 91.776 277.727 C 93.824 277.512, 91.900 277.339, 87.500 277.343 C 83.100 277.346, 81.424 277.522, 83.776 277.733 M 142.500 284 C 144.648 286.200, 146.631 288, 146.906 288 C 147.181 288, 145.648 286.200, 143.500 284 C 141.352 281.800, 139.369 280, 139.094 280 C 138.819 280, 140.352 281.800, 142.500 284 M 45.437 293.250 L 42.500 296.500 45.750 293.563 C 47.538 291.948, 49 290.485, 49 290.313 C 49 289.540, 48.175 290.221, 45.437 293.250 M 389.310 295.500 C 389.315 298.800, 389.502 300.029, 389.725 298.232 C 389.947 296.435, 389.943 293.735, 389.715 292.232 C 389.486 290.729, 389.304 292.200, 389.310 295.500 M 38.924 299.750 L 36.500 302.500 39.250 300.076 C 41.820 297.810, 42.459 297, 41.674 297 C 41.495 297, 40.258 298.238, 38.924 299.750 M 370.195 301.500 C 370.215 303.150, 370.439 303.704, 370.693 302.731 C 370.947 301.758, 370.930 300.408, 370.656 299.731 C 370.382 299.054, 370.175 299.850, 370.195 301.500 M 269.958 312.250 C 272.410 314.863, 274.548 317, 274.708 317 C 275.459 317, 274.665 316.102, 270.250 311.958 L 265.500 307.500 269.958 312.250 M 30.954 311.086 C 30.340 312.233, 30.026 313.360, 30.257 313.590 C 30.487 313.820, 31.189 312.882, 31.816 311.504 C 33.194 308.480, 32.523 308.154, 30.954 311.086 M 218.872 312.692 C 218.106 313.637, 218.018 314.073, 218.674 313.680 C 219.359 313.269, 220.042 313.710, 220.313 314.738 C 220.568 315.707, 220.729 315.262, 220.670 313.750 C 220.545 310.505, 220.614 310.545, 218.872 312.692 M 171 318.500 C 172.866 320.425, 174.617 322, 174.892 322 C 175.167 322, 173.866 320.425, 172 318.500 C 170.134 316.575, 168.383 315, 168.108 315 C 167.833 315, 169.134 316.575, 171 318.500 M 381.250 315.689 C 382.212 315.941, 383.788 315.941, 384.750 315.689 C 385.712 315.438, 384.925 315.232, 383 315.232 C 381.075 315.232, 380.288 315.438, 381.250 315.689 M 166.250 324.689 C 167.213 324.941, 168.787 324.941, 169.750 324.689 C 170.713 324.438, 169.925 324.232, 168 324.232 C 166.075 324.232, 165.287 324.438, 166.250 324.689 M 295.690 330.696 C 296.344 331.162, 297.061 334.009, 297.283 337.022 L 297.687 342.500 297.594 336.579 C 297.525 332.219, 297.104 330.551, 296 330.253 C 294.953 329.970, 294.860 330.104, 295.690 330.696 M 306.300 336 C 306.300 339.025, 306.487 340.262, 306.716 338.750 C 306.945 337.238, 306.945 334.762, 306.716 333.250 C 306.487 331.738, 306.300 332.975, 306.300 336 M 24.232 335 C 24.232 336.925, 24.438 337.712, 24.689 336.750 C 24.941 335.788, 24.941 334.212, 24.689 333.250 C 24.438 332.288, 24.232 333.075, 24.232 335 M 150.195 334.500 C 150.215 336.150, 150.439 336.704, 150.693 335.731 C 150.947 334.758, 150.930 333.408, 150.656 332.731 C 150.382 332.054, 150.175 332.850, 150.195 334.500 M 216.252 337.500 C 216.263 339.700, 216.468 340.482, 216.707 339.238 C 216.946 337.994, 216.937 336.194, 216.687 335.238 C 216.437 334.282, 216.241 335.300, 216.252 337.500 M 197.667 340.667 C 196.445 341.889, 196.979 343.001, 198.750 342.921 C 199.806 342.873, 200.002 342.641, 199.244 342.336 C 198.553 342.057, 198.242 341.418, 198.553 340.915 C 199.209 339.852, 198.640 339.693, 197.667 340.667 M 24.232 346 C 24.232 347.925, 24.438 348.712, 24.689 347.750 C 24.941 346.788, 24.941 345.212, 24.689 344.250 C 24.438 343.288, 24.232 344.075, 24.232 346 M 150.195 346.500 C 150.215 348.150, 150.439 348.704, 150.693 347.731 C 150.947 346.758, 150.930 345.408, 150.656 344.731 C 150.382 344.054, 150.175 344.850, 150.195 346.500 M 166.903 345.307 C 167.349 345.751, 170.141 345.970, 173.107 345.793 L 178.500 345.472 172.296 344.986 C 168.884 344.719, 166.457 344.863, 166.903 345.307 M 363.437 356.250 L 360.500 359.500 363.750 356.563 C 366.779 353.825, 367.460 353, 366.687 353 C 366.515 353, 365.052 354.462, 363.437 356.250 M 274.750 363.068 C 272.688 364.157, 271 365.271, 271 365.544 C 271 365.817, 272.800 365.122, 275 364 C 277.200 362.878, 279 361.743, 279 361.480 C 279 360.826, 278.993 360.828, 274.750 363.068 M 29 365.383 C 29 366.456, 31.975 372, 32.551 372 C 32.826 372, 32.308 370.538, 31.399 368.750 C 29.542 365.100, 29 364.339, 29 365.383 M 164.762 365.707 C 166.006 365.946, 167.806 365.937, 168.762 365.687 C 169.718 365.437, 168.700 365.241, 166.500 365.252 C 164.300 365.263, 163.518 365.468, 164.762 365.707 M 177.269 366.693 C 178.242 366.947, 179.592 366.930, 180.269 366.656 C 180.946 366.382, 180.150 366.175, 178.500 366.195 C 176.850 366.215, 176.296 366.439, 177.269 366.693 M 225 371.313 C 225 371.485, 226.463 372.948, 228.250 374.563 L 231.500 377.500 228.563 374.250 C 225.825 371.221, 225 370.540, 225 371.313 M 303.750 379.723 C 305.538 379.945, 308.462 379.945, 310.250 379.723 C 312.038 379.502, 310.575 379.320, 307 379.320 C 303.425 379.320, 301.962 379.502, 303.750 379.723 M 243 382.387 C 243 383.208, 249.116 383.621, 249.603 382.833 C 249.886 382.375, 248.516 382, 246.559 382 C 244.602 382, 243 382.174, 243 382.387 M 320.500 383 C 318.741 383.756, 318.838 383.868, 321.309 383.930 C 322.941 383.971, 323.859 383.581, 323.500 383 C 323.160 382.450, 322.796 382.032, 322.691 382.070 C 322.586 382.109, 321.600 382.527, 320.500 383 M 298.750 389.706 C 299.988 389.944, 302.012 389.944, 303.250 389.706 C 304.488 389.467, 303.475 389.272, 301 389.272 C 298.525 389.272, 297.512 389.467, 298.750 389.706 M 308 400.395 C 308 401.138, 312.010 401.793, 312.427 401.118 C 312.663 400.737, 311.763 400.334, 310.428 400.223 C 309.093 400.113, 308 400.190, 308 400.395 M 79.762 403.707 C 81.006 403.946, 82.806 403.937, 83.762 403.687 C 84.718 403.437, 83.700 403.241, 81.500 403.252 C 79.300 403.263, 78.518 403.468, 79.762 403.707 M 91.762 403.707 C 93.006 403.946, 94.806 403.937, 95.762 403.687 C 96.718 403.437, 95.700 403.241, 93.500 403.252 C 91.300 403.263, 90.518 403.468, 91.762 403.707 M 250.264 418.718 C 251.784 418.947, 254.034 418.941, 255.264 418.704 C 256.494 418.467, 255.250 418.279, 252.500 418.286 C 249.750 418.294, 248.744 418.488, 250.264 418.718" stroke="none" fill="#2a363e" fill-rule="evenodd"/><path d="M 351.780 210.261 C 356.065 222.177, 344.997 233.368, 333.627 228.617 C 330.187 227.180, 330 227.202, 330 229.032 C 330 235.123, 353.153 230.473, 356.668 223.676 C 359.880 217.464, 356.833 206, 351.969 206 C 350.370 206, 350.357 206.303, 351.780 210.261 M 206 207.825 C 206 208.244, 207.800 209.067, 210 209.654 C 212.200 210.242, 214 210.343, 214 209.880 C 214 209.417, 212.762 208.767, 211.250 208.436 C 209.738 208.104, 207.938 207.660, 207.250 207.448 C 206.563 207.236, 206 207.406, 206 207.825 M 342.051 209.439 C 339.521 212.487, 343.513 216.479, 346.561 213.949 C 348.698 212.176, 347.977 208.568, 345.412 208.202 C 344.264 208.038, 342.752 208.594, 342.051 209.439 M 218 213.378 C 218 216.499, 220.375 218.374, 223.377 217.620 C 227.385 216.614, 227.456 214.089, 223.522 212.445 C 218.810 210.476, 218 210.613, 218 213.378 M 332.020 218.476 C 331.231 219.426, 331.155 220, 331.819 220 C 333.027 220, 334.436 218.103, 333.743 217.409 C 333.491 217.158, 332.716 217.638, 332.020 218.476 M 235.393 221.582 C 235.727 222.452, 236 223.352, 236 223.582 C 236 223.812, 236.970 224, 238.155 224 C 240.247 224, 240.257 223.941, 238.500 222 C 236.336 219.609, 234.543 219.368, 235.393 221.582 M 241.628 230.866 C 240.053 232.510, 237.400 234.420, 235.731 235.111 C 233.050 236.222, 232.918 236.454, 234.599 237.114 C 235.741 237.562, 233.506 237.932, 229 238.042 L 221.500 238.224 226.500 239.199 C 230.017 239.884, 232.462 239.833, 234.744 239.024 C 236.528 238.392, 238.385 238.120, 238.869 238.419 C 240.206 239.245, 249.001 235.977, 248.995 234.656 C 248.992 234.020, 247.978 232.235, 246.741 230.689 L 244.491 227.878 241.628 230.866 M 74.462 279.473 C 51.504 284.471, 32.847 302.640, 26.935 325.756 C 19.918 353.191, 33.747 383.397, 59.030 395.861 C 78.100 405.262, 96.890 405.266, 115.942 395.874 C 140.711 383.664, 154.287 355.155, 148.501 327.500 C 141.562 294.336, 107.546 272.271, 74.462 279.473 M 172.641 300.404 C 169.170 304.954, 167.612 308.547, 168.315 310.378 C 168.632 311.206, 172.179 312.839, 176.196 314.008 C 189.794 317.963, 192.131 319.201, 200.152 326.702 C 204.444 330.716, 208.249 334, 208.608 334 C 210.378 334, 207.573 325.991, 203.009 318.016 C 197.630 308.616, 191.449 302.555, 183.500 298.889 C 177.710 296.218, 175.610 296.511, 172.641 300.404 M 167 319.603 C 167 323.517, 167.247 323.992, 169.250 323.930 C 174.364 323.770, 174.685 322.680, 170.750 318.853 L 167 315.206 167 319.603 M 200.297 337.810 C 199.665 339.829, 199.227 341.513, 199.324 341.551 C 199.421 341.590, 201.863 341.438, 204.750 341.214 C 208.966 340.887, 210 340.456, 210 339.026 C 210 336.760, 208.300 335.432, 204.473 334.710 C 201.684 334.184, 201.355 334.429, 200.297 337.810" stroke="none" fill="#d5f0f5" fill-rule="evenodd"/></svg>